<?xml version="1.0" encoding="UTF-8"?>
<svg width="1259px" height="208px" viewBox="0 0 1259 208" version="1.1" xmlns="http://www.w3.org/2000/svg" xmlns:xlink="http://www.w3.org/1999/xlink">
    <!-- Generator: Sketch 50.2 (55047) - http://www.bohemiancoding.com/sketch -->
    <title>buzzfeed</title>
    <desc>Created with Sketch.</desc>
    <defs>
        <linearGradient x1="50%" y1="100%" x2="50%" y2="0%" id="linearGradient-1">
            <stop stop-color="#F9F4EF" offset="0%"></stop>
            <stop stop-color="#F25042" offset="100%"></stop>
        </linearGradient>
    </defs>
    <g id="Page-1" stroke="none" stroke-width="1" fill="none" fill-rule="evenodd">
        <g id="buzzfeed" fill="url(#linearGradient-1)" fill-rule="nonzero">
            <path d="M124.554726,106.995781 C134.567164,107.797468 142.977612,111.805907 150.186567,119.421941 C157.395522,127.037975 161,137.459916 161,150.687764 C161,166.721519 155.793532,179.949367 144.9801,189.56962 C134.166667,199.189873 118.947761,204 98.5223881,204 L0,204 L0,14 L98.1218905,14 C115.343284,14 129.360697,18.8101266 139.773632,28.0295359 C150.186567,37.649789 155.393035,50.0759494 155.393035,65.7088608 C155.393035,77.7341772 152.189055,86.9535865 145.380597,94.1687764 C138.572139,101.383966 131.763682,104.991561 124.154229,105.793249 L124.554726,106.995781 Z M46.858209,92.5654008 L87.7089552,92.5654008 C94.5174129,92.5654008 100.124378,90.5611814 104.529851,86.5527426 C108.534826,82.5443038 110.937811,77.7341772 110.937811,70.9198312 C110.937811,64.907173 108.935323,60.4978903 104.930348,56.8902954 C100.925373,53.2827004 95.7189055,51.6793249 89.7114428,51.6793249 L46.858209,51.6793249 L46.858209,92.5654008 Z M90.1119403,166.320675 C97.3208955,166.320675 103.328358,164.316456 107.333333,160.708861 C111.338308,157.101266 113.340796,151.890295 113.340796,145.075949 C113.340796,138.662447 111.338308,133.852321 106.932836,130.244726 C102.927861,126.637131 97.3208955,124.632911 90.9129353,124.632911 L46.858209,124.632911 L46.858209,166.320675 C46.858209,166.320675 90.1119403,166.320675 90.1119403,166.320675 Z" id="Shape"></path>
            <path d="M323,203.612022 L277.8,203.612022 L277.8,190.04918 C266.6,202.016393 251.8,208 234.2,208 C217.4,208 204.2,202.415301 194.2,191.644809 C184.2,180.874317 179,166.513661 179,148.961749 L179,62 L223.8,62 L223.8,139.387978 C223.8,147.765027 226.2,154.546448 230.6,159.73224 C235,164.918033 241,167.311475 248.2,167.311475 C257.4,167.311475 264.6,164.120219 269.8,157.737705 C275,151.355191 277.4,141.382514 277.4,127.819672 L277.4,62 L322.6,62 L323,203.612022 Z" id="Shape"></path>
            <polygon id="Shape" points="463 204 343 204 343 195.6 399.4 98 344.6 98 344.6 62 462.2 62 462.2 70.4 405.8 168 462.6 168 462.6 204"></polygon>
            <polygon id="Shape" points="603 204 483 204 483 195.6 539.187291 98 484.204013 98 484.204013 62 602.197324 62 602.197324 70.4 545.608696 168 602.598662 168"></polygon>
            <polygon id="Shape" points="669.8 95.2 751.8 95.2 751.8 136 669.8 136 669.8 204 623 204 623 14 759 14 759 54.8 669.8 54.8"></polygon>
            <path d="M1084,144.569149 L979.579515,144.569149 C982.390836,162.12234 995.644205,172.095745 1015.32345,172.095745 C1030.98652,172.095745 1046.6496,166.111702 1058.2965,156.93617 L1075.56604,186.856383 C1059.50135,200.420213 1039.01887,208 1015.32345,208 C967.530997,208 935,179.276596 935,133 C935,111.058511 942.229111,93.106383 956.687332,79.143617 C971.145553,65.1808511 989.218329,58 1010.50404,58 C1030.98652,58 1048.25606,64.7819149 1062.31267,78.7446809 C1076.36927,92.7074468 1083.59838,110.659574 1084,133.398936 L1084,144.569149 Z M992.02965,100.287234 C986.407008,104.276596 982.390836,109.861702 980.382749,116.643617 L1039.01887,116.643617 C1037.01078,109.462766 1033.39623,103.87766 1028.1752,99.8882979 C1022.95418,96.2978723 1016.92992,94.3031915 1010.50404,94.3031915 C1003.67655,94.3031915 997.652291,96.2978723 992.02965,100.287234 Z" id="Shape"></path>
            <path d="M918,144.569149 L813.579515,144.569149 C816.390836,162.12234 829.644205,172.095745 849.32345,172.095745 C864.986523,172.095745 880.649596,166.111702 892.296496,156.93617 L909.566038,186.856383 C893.501348,200.420213 873.018868,208 849.32345,208 C801.530997,208 769,179.276596 769,133 C769,111.058511 776.229111,93.106383 790.687332,79.143617 C805.145553,65.1808511 823.218329,58 844.504043,58 C864.986523,58 882.256065,64.7819149 896.312668,78.7446809 C910.369272,92.7074468 917.598383,110.659574 918,133.398936 L918,144.569149 Z M826.02965,100.287234 C820.407008,104.276596 816.390836,109.861702 814.382749,116.643617 L873.018868,116.643617 C871.010782,109.462766 867.396226,103.87766 862.175202,99.8882979 C856.954178,96.2978723 850.929919,94.3031915 844.504043,94.3031915 C837.67655,94.3031915 831.652291,96.2978723 826.02965,100.287234 Z" id="Shape"></path>
            <path d="M1259,203.6 L1213.74307,203.6 L1213.74307,192.4 C1202.12846,202.8 1187.71033,208 1169.68766,208 C1150.46348,208 1134.04282,200.8 1120.42569,186.8 C1106.80856,172.8 1100,154.8 1100,132.8 C1100,110.8 1106.80856,92.8 1120.42569,78.8 C1134.04282,64.8 1150.46348,57.6 1169.68766,57.6 C1187.71033,57.6 1202.52897,62.8 1213.74307,73.2 L1213.74307,0 L1259,0 L1259,203.6 Z M1203.73048,159.2 C1210.53904,152.4 1214.14358,143.6 1214.14358,132.8 C1214.14358,122.4 1210.53904,113.6 1203.73048,106.4 C1196.92191,99.6 1188.51134,96 1179.29975,96 C1169.28715,96 1161.27708,99.6 1154.86902,106.4 C1148.46096,113.2 1145.25693,122 1145.25693,132.8 C1145.25693,143.6 1148.46096,152.8 1154.86902,159.6 C1161.27708,166.4 1169.28715,169.6 1179.29975,169.6 C1188.51134,169.6 1196.52141,166 1203.73048,159.2 Z" id="Shape"></path>
        </g>
    </g>
</svg>
