<?xml version="1.0" encoding="UTF-8"?>
<svg width="1295px" height="333px" viewBox="0 0 1295 333" version="1.1" xmlns="http://www.w3.org/2000/svg" xmlns:xlink="http://www.w3.org/1999/xlink">
    <!-- Generator: Sketch 50.2 (55047) - http://www.bohemiancoding.com/sketch -->
    <title>Shape</title>
    <desc>Created with Sketch.</desc>
    <defs>
        <linearGradient x1="50%" y1="100%" x2="50%" y2="0%" id="linearGradient-1">
            <stop stop-color="#F9F4EF" offset="0%"></stop>
            <stop stop-color="#F25042" offset="100%"></stop>
        </linearGradient>
    </defs>
    <g id="Page-1" stroke="none" stroke-width="1" fill="none" fill-rule="evenodd">
        <path d="M0,167.9 C0,113.4 38.884,79.9 101.06,79.9 L165.433,79.9 L165.433,0 L246,0 L246,251 L100.76,251 C38.883,251 0,218.8 0,167.9 Z M85,165.2 C85,186.1 97.653,197 121.96,197 L165,197 L165,133 L122.36,133 C98.05,133 85,144 85,165.2 Z M767,165.1 C767,219.6 728.116,253.1 665.94,253.1 L601.567,253.1 L601.567,333 L521,333 L521,82 L666.24,82 C728.117,82 767,114.2 767,165.1 Z M682,167.8 C682,146.9 669.332,136 644.993,136 L602,136 L602,200 L644.693,200 C669.033,200 682,189 682,167.8 Z M1295,165.1 C1295,219.6 1256.116,253.1 1193.94,253.1 L1129.567,253.1 L1129.567,333 L1049,333 L1049,82 L1194.24,82 C1256.116,82 1295,114.2 1295,165.1 Z M1210,167.8 C1210,146.9 1197.332,136 1172.993,136 L1130,136 L1130,200 L1172.693,200 C1197.033,200 1210,189 1210,167.8 Z M791,166.6 C791,105.604 839.8,73 907,73 C974.2,73 1023,105.604 1023,166.6 C1023,227.593 974.2,261 907,261 C839.8,260.9 791,227.593 791,166.6 Z M944,165.65 C944,135.917 929.1,121 906.5,121 C883.9,121 869,135.917 869,165.65 C869,194.982 883.9,211 906.5,211 C929.2,210.9 944,194.982 944,165.65 Z M494,169.912 C494,108.918 454.77,72 383.898,72 C315.82,72 272,108.918 272,166.702 C272,225.19 315.422,260 387.79,260 C433.31,260 470.043,242.946 489.408,215.257 L431.712,194.19 C421.73,205.125 406.657,211.144 390.786,211.144 C366.929,211.144 350.359,201.514 346.066,185.161 C345.766,184.059 345.566,183.055 345.368,181.851 L494,181.851 L494,169.913 L494,169.912 Z M346,144 C347.902,124.186 361.62,112 385.45,112 C409.282,112 423,124.88 423,144 L346,144 Z" id="Shape" fill="url(#linearGradient-1)" fill-rule="nonzero"></path>
    </g>
</svg>
